<svg width="512" height="512" viewBox="0 0 512 512" fill="none" xmlns="http://www.w3.org/2000/svg">
<path d="M192 202.668C192 213.216 188.872 223.528 183.012 232.298C177.151 241.069 168.822 247.905 159.076 251.942C149.331 255.978 138.608 257.034 128.262 254.977C117.916 252.919 108.413 247.839 100.954 240.38C93.4955 232.922 88.416 223.418 86.3581 213.073C84.3002 202.727 85.3564 192.004 89.3931 182.258C93.4298 172.513 100.266 164.183 109.036 158.323C117.807 152.463 128.118 149.335 138.667 149.335C152.812 149.335 166.377 154.954 176.379 164.956C186.381 174.958 192 188.523 192 202.668ZM512 256.001V213.335C512 190.703 503.01 168.998 487.006 152.995C471.003 136.992 449.298 128.001 426.667 128.001H320C297.368 128.001 275.663 136.992 259.66 152.995C243.657 168.998 234.667 190.703 234.667 213.335V256.001H512ZM42.6667 298.668V64.0013C42.6667 58.3434 40.4191 52.9171 36.4183 48.9164C32.4175 44.9156 26.9913 42.668 21.3333 42.668C15.6754 42.668 10.2492 44.9156 6.24839 48.9164C2.24761 52.9171 0 58.3434 0 64.0013L0 448.001C0 453.659 2.24761 459.085 6.24839 463.086C10.2492 467.087 15.6754 469.335 21.3333 469.335C26.9913 469.335 32.4175 467.087 36.4183 463.086C40.4191 459.085 42.6667 453.659 42.6667 448.001V405.335H469.333V448.001C469.333 453.659 471.581 459.085 475.582 463.086C479.582 467.087 485.009 469.335 490.667 469.335C496.325 469.335 501.751 467.087 505.752 463.086C509.752 459.085 512 453.659 512 448.001V298.668H42.6667Z" fill="black"/>
</svg>
