<svg xmlns="http://www.w3.org/2000/svg" style="position:absolute;width:0;height:0;overflow:hidden" aria-hidden="true">
  <symbol id="i-menu" viewBox="0 0 24 24">
    <path d="M5 7h14M5 12h14M5 17h14" fill="none" stroke="currentColor" stroke-width="1.8" stroke-linecap="round"/>
  </symbol>
  <symbol id="i-close" viewBox="0 0 24 24">
    <path d="M7 7l10 10M17 7L7 17" fill="none" stroke="currentColor" stroke-width="1.8" stroke-linecap="round"/>
  </symbol>
  <symbol id="i-chevron" viewBox="0 0 24 24">
    <path d="M8 10l4 4 4-4" fill="none" stroke="currentColor" stroke-width="1.8" stroke-linecap="round" stroke-linejoin="round"/>
  </symbol>
  <symbol id="i-arrow" viewBox="0 0 24 24">
    <path d="M5 12h12M13 6l6 6-6 6" fill="none" stroke="currentColor" stroke-width="1.8" stroke-linecap="round" stroke-linejoin="round"/>
  </symbol>

  <symbol id="i-phone" viewBox="0 0 24 24">
    <path d="M7 4h2l1 5-2 1c1 3 4 6 7 7l1-2 5 1v2c0 1-1 2-2 2-9 0-16-7-16-16 0-1 1-2 2-2z"
      fill="none" stroke="currentColor" stroke-width="1.6" stroke-linejoin="round"/>
  </symbol>
  <symbol id="i-mail" viewBox="0 0 24 24">
    <path d="M4 7h16v10H4z" fill="none" stroke="currentColor" stroke-width="1.6" stroke-linejoin="round"/>
    <path d="M4 7l8 6 8-6" fill="none" stroke="currentColor" stroke-width="1.6" stroke-linejoin="round"/>
  </symbol>
  <symbol id="i-map" viewBox="0 0 24 24">
    <path d="M12 21s6-4.2 6-10a6 6 0 10-12 0c0 5.8 6 10 6 10z" fill="none" stroke="currentColor" stroke-width="1.6"/>
    <path d="M12 11.2a1.2 1.2 0 110-2.4 1.2 1.2 0 010 2.4z" fill="currentColor"/>
  </symbol>
  <symbol id="i-instagram" viewBox="0 0 24 24">
    <path d="M7 4h10a3 3 0 013 3v10a3 3 0 01-3 3H7a3 3 0 01-3-3V7a3 3 0 013-3z" fill="none" stroke="currentColor" stroke-width="1.6"/>
    <path d="M12 16a4 4 0 100-8 4 4 0 000 8z" fill="none" stroke="currentColor" stroke-width="1.6"/>
    <path d="M17.5 6.7h.01" fill="none" stroke="currentColor" stroke-width="2.2" stroke-linecap="round"/>
  </symbol>
  <symbol id="i-whatsapp" viewBox="0 0 24 24">
    <path d="M12 3a9 9 0 00-7.7 13.6L4 21l4.6-1.2A9 9 0 1012 3z"
      fill="none" stroke="currentColor" stroke-width="1.6" stroke-linejoin="round"/>
    <path d="M8.8 9.2c.3 3.2 3.7 6.6 6.9 6.9.5 0 1.2-.3 1.7-.8l.7-.7-1.7-1-.6.5c-.2.2-.6.3-.9.2-1.1-.3-2.6-1.8-2.9-2.9-.1-.3 0-.7.2-.9l.5-.6-1-1.7-.7.7c-.5.5-.8 1.2-.8 1.7z"
      fill="currentColor" opacity=".9"/>
  </symbol>

  <symbol id="i-wifi" viewBox="0 0 24 24">
    <path d="M5 10a11 11 0 0114 0M7.5 13a7.5 7.5 0 019 0M10 16a4 4 0 014 0" fill="none" stroke="currentColor" stroke-width="1.6" stroke-linecap="round"/>
    <path d="M12 19.2h.01" fill="none" stroke="currentColor" stroke-width="2.4" stroke-linecap="round"/>
  </symbol>
  <symbol id="i-clock" viewBox="0 0 24 24">
    <path d="M12 7v5l3 2" fill="none" stroke="currentColor" stroke-width="1.6" stroke-linecap="round" stroke-linejoin="round"/>
    <path d="M12 21a9 9 0 110-18 9 9 0 010 18z" fill="none" stroke="currentColor" stroke-width="1.6"/>
  </symbol>
  <symbol id="i-in" viewBox="0 0 24 24">
    <path d="M12 3v12" fill="none" stroke="currentColor" stroke-width="1.6" stroke-linecap="round"/>
    <path d="M8 7l4-4 4 4" fill="none" stroke="currentColor" stroke-width="1.6" stroke-linecap="round" stroke-linejoin="round"/>
    <path d="M5 21h14" fill="none" stroke="currentColor" stroke-width="1.6" stroke-linecap="round"/>
  </symbol>
  <symbol id="i-out" viewBox="0 0 24 24">
    <path d="M12 21V9" fill="none" stroke="currentColor" stroke-width="1.6" stroke-linecap="round"/>
    <path d="M8 17l4 4 4-4" fill="none" stroke="currentColor" stroke-width="1.6" stroke-linecap="round" stroke-linejoin="round"/>
    <path d="M5 3h14" fill="none" stroke="currentColor" stroke-width="1.6" stroke-linecap="round"/>
  </symbol>

  <symbol id="i-spa" viewBox="0 0 24 24">
    <path d="M7 18c2-4 8-4 10 0" fill="none" stroke="currentColor" stroke-width="1.6" stroke-linecap="round"/>
    <path d="M9 10c.5 1.8-.5 3.2-2 4M12 9c.8 2 .2 3.6-1 5M15 10c.5 1.8-.5 3.2-2 4" fill="none" stroke="currentColor" stroke-width="1.4" stroke-linecap="round"/>
  </symbol>
  <symbol id="i-kids" viewBox="0 0 24 24">
    <path d="M8 20v-6l4-2 4 2v6" fill="none" stroke="currentColor" stroke-width="1.6" stroke-linejoin="round"/>
    <path d="M12 9.2a2.2 2.2 0 110-4.4 2.2 2.2 0 010 4.4z" fill="none" stroke="currentColor" stroke-width="1.6"/>
  </symbol>
  <symbol id="i-walk" viewBox="0 0 24 24">
    <path d="M13 5.5a1.6 1.6 0 110-3.2 1.6 1.6 0 010 3.2z" fill="currentColor"/>
    <path d="M10 21l2-6 3 2 1 4M9 12l3-2 2 1 3 2" fill="none" stroke="currentColor" stroke-width="1.6" stroke-linecap="round" stroke-linejoin="round"/>
    <path d="M8 14l-2 2" fill="none" stroke="currentColor" stroke-width="1.6" stroke-linecap="round"/>
  </symbol>

  <!-- Rules / utilities -->
  <symbol id="i-check" viewBox="0 0 24 24">
    <path d="M20 6L9 17l-5-5" fill="none" stroke="currentColor" stroke-width="1.8" stroke-linecap="round" stroke-linejoin="round"/>
  </symbol>
  <symbol id="i-ban" viewBox="0 0 24 24">
    <path d="M12 21a9 9 0 110-18 9 9 0 010 18z" fill="none" stroke="currentColor" stroke-width="1.6"/>
    <path d="M7.5 7.5l9 9" fill="none" stroke="currentColor" stroke-width="1.6" stroke-linecap="round"/>
  </symbol>
  <symbol id="i-paw" viewBox="0 0 24 24">
    <path d="M8 12c-1.2 0-2-1-2-2.2C6 8.6 6.8 8 7.8 8c1 0 1.7.8 1.7 1.8S9.1 12 8 12zm8 0c-1.1 0-1.9-1-1.9-2.2S14.8 8 15.8 8c1 0 1.8.6 1.8 1.8 0 1.2-.8 2.2-1.6 2.2z" fill="none" stroke="currentColor" stroke-width="1.2"/>
    <path d="M10.5 8.5c-1 0-1.7-.9-1.7-2 0-1.1.8-1.8 1.7-1.8 1 0 1.7.8 1.7 1.8 0 1.1-.7 2-1.7 2zM13.5 8.5c-1 0-1.7-.9-1.7-2 0-1.1.8-1.8 1.7-1.8 1 0 1.7.8 1.7 1.8 0 1.1-.7 2-1.7 2z" fill="none" stroke="currentColor" stroke-width="1.2"/>
    <path d="M12 21c-3.5 0-6-2.1-6-4.3 0-2 2.2-3.2 6-3.2s6 1.2 6 3.2C18 18.9 15.5 21 12 21z" fill="none" stroke="currentColor" stroke-width="1.4"/>
  </symbol>
  <symbol id="i-broom" viewBox="0 0 24 24">
    <path d="M4 20h7" fill="none" stroke="currentColor" stroke-width="1.6" stroke-linecap="round"/>
    <path d="M10 18l9-9 2 2-9 9H10z" fill="none" stroke="currentColor" stroke-width="1.6" stroke-linejoin="round"/>
    <path d="M15 7l2 2" fill="none" stroke="currentColor" stroke-width="1.6" stroke-linecap="round"/>
  </symbol>
  <symbol id="i-card" viewBox="0 0 24 24">
    <path d="M4 7h16v10H4z" fill="none" stroke="currentColor" stroke-width="1.6"/>
    <path d="M4 10h16" fill="none" stroke="currentColor" stroke-width="1.6"/>
  </symbol>
  <symbol id="i-repeat" viewBox="0 0 24 24">
    <path d="M20 12a8 8 0 10-2.3 5.7" fill="none" stroke="currentColor" stroke-width="1.6" stroke-linecap="round"/>
    <path d="M20 14v4h-4" fill="none" stroke="currentColor" stroke-width="1.6" stroke-linecap="round" stroke-linejoin="round"/>
  </symbol>
  <symbol id="i-shirt" viewBox="0 0 24 24">
    <path d="M8 6l4-2 4 2 3 3-2 2-2-2v11H9V9L7 11 5 9l3-3z" fill="none" stroke="currentColor" stroke-width="1.4" stroke-linejoin="round"/>
  </symbol>
  <symbol id="i-users" viewBox="0 0 24 24">
    <path d="M8 12a3 3 0 110-6 3 3 0 010 6zM16 12a3 3 0 110-6 3 3 0 010 6z" fill="none" stroke="currentColor" stroke-width="1.4"/>
    <path d="M4 20c0-3 2-5 4-5s4 2 4 5M12 20c0-3 2-5 4-5s4 2 4 5" fill="none" stroke="currentColor" stroke-width="1.4" stroke-linecap="round"/>
  </symbol>
</svg>